<mxfile host="app.diagrams.net" modified="2021-11-23T02:54:04.626Z" agent="5.0 (Macintosh; Intel Mac OS X 10_15_7) AppleWebKit/537.36 (KHTML, like Gecko) Chrome/96.0.4664.55 Safari/537.36" etag="LuD-fkta75O8h_uO2KYm" version="14.9.3" type="github">
  <diagram id="9k3yhEbFu_1CZcW9YBHv" name="第 1 页">
    <mxGraphModel dx="815" dy="454" grid="0" gridSize="10" guides="1" tooltips="1" connect="1" arrows="1" fold="1" page="1" pageScale="1" pageWidth="827" pageHeight="1169" math="0" shadow="0">
      <root>
        <mxCell id="0" />
        <mxCell id="1" parent="0" />
        <mxCell id="lCiSDCw6pnVLolVEOz2V-1" value="第一代" style="rounded=0;whiteSpace=wrap;html=1;align=left;verticalAlign=top;" parent="1" vertex="1">
          <mxGeometry x="258" y="303" width="80" height="300" as="geometry" />
        </mxCell>
        <mxCell id="lCiSDCw6pnVLolVEOz2V-2" value="P1" style="ellipse;whiteSpace=wrap;html=1;aspect=fixed;fillColor=#d5e8d4;strokeColor=#82b366;" parent="1" vertex="1">
          <mxGeometry x="273" y="333" width="50" height="50" as="geometry" />
        </mxCell>
        <mxCell id="lCiSDCw6pnVLolVEOz2V-3" value="P2" style="ellipse;whiteSpace=wrap;html=1;aspect=fixed;fillColor=#d5e8d4;strokeColor=#82b366;" parent="1" vertex="1">
          <mxGeometry x="273" y="393" width="50" height="50" as="geometry" />
        </mxCell>
        <mxCell id="lCiSDCw6pnVLolVEOz2V-4" value="P3" style="ellipse;whiteSpace=wrap;html=1;aspect=fixed;fillColor=#f8cecc;strokeColor=#b85450;" parent="1" vertex="1">
          <mxGeometry x="273" y="453" width="50" height="50" as="geometry" />
        </mxCell>
        <mxCell id="lCiSDCw6pnVLolVEOz2V-5" value="P4" style="ellipse;whiteSpace=wrap;html=1;aspect=fixed;fillColor=#f8cecc;strokeColor=#b85450;" parent="1" vertex="1">
          <mxGeometry x="273" y="513" width="50" height="50" as="geometry" />
        </mxCell>
        <mxCell id="lCiSDCw6pnVLolVEOz2V-6" value="&lt;font style=&quot;font-size: 6px;&quot;&gt;淘汰策略: 投资回报率低于1.0&lt;/font&gt;" style="text;html=1;strokeColor=none;fillColor=none;align=center;verticalAlign=middle;whiteSpace=wrap;rounded=0;fontSize=6;" parent="1" vertex="1">
          <mxGeometry x="198" y="613" width="160" height="30" as="geometry" />
        </mxCell>
        <mxCell id="lCiSDCw6pnVLolVEOz2V-7" value="&lt;font style=&quot;font-size: 6px;&quot;&gt;晋升策略: 投资回报率高于1.2&lt;/font&gt;" style="text;html=1;strokeColor=none;fillColor=none;align=center;verticalAlign=middle;whiteSpace=wrap;rounded=0;fontSize=6;" parent="1" vertex="1">
          <mxGeometry x="198" y="633" width="160" height="30" as="geometry" />
        </mxCell>
        <mxCell id="lCiSDCw6pnVLolVEOz2V-8" value="第二代" style="rounded=0;whiteSpace=wrap;html=1;align=left;verticalAlign=top;" parent="1" vertex="1">
          <mxGeometry x="408" y="303" width="80" height="300" as="geometry" />
        </mxCell>
        <mxCell id="lCiSDCw6pnVLolVEOz2V-9" value="P11" style="ellipse;whiteSpace=wrap;html=1;aspect=fixed;fillColor=#d5e8d4;strokeColor=#82b366;" parent="1" vertex="1">
          <mxGeometry x="423" y="333" width="50" height="50" as="geometry" />
        </mxCell>
        <mxCell id="lCiSDCw6pnVLolVEOz2V-10" value="P12" style="ellipse;whiteSpace=wrap;html=1;aspect=fixed;fillColor=#f8cecc;strokeColor=#b85450;" parent="1" vertex="1">
          <mxGeometry x="423" y="393" width="50" height="50" as="geometry" />
        </mxCell>
        <mxCell id="lCiSDCw6pnVLolVEOz2V-11" value="P21" style="ellipse;whiteSpace=wrap;html=1;aspect=fixed;fillColor=#f8cecc;strokeColor=#b85450;" parent="1" vertex="1">
          <mxGeometry x="423" y="453" width="50" height="50" as="geometry" />
        </mxCell>
        <mxCell id="lCiSDCw6pnVLolVEOz2V-12" value="P22" style="ellipse;whiteSpace=wrap;html=1;aspect=fixed;fillColor=#d5e8d4;strokeColor=#82b366;" parent="1" vertex="1">
          <mxGeometry x="423" y="513" width="50" height="50" as="geometry" />
        </mxCell>
        <mxCell id="lCiSDCw6pnVLolVEOz2V-13" value="&lt;font style=&quot;font-size: 6px&quot;&gt;淘汰策略: 投资回报率低于1.1&lt;/font&gt;" style="text;html=1;strokeColor=none;fillColor=none;align=center;verticalAlign=middle;whiteSpace=wrap;rounded=0;fontSize=6;" parent="1" vertex="1">
          <mxGeometry x="368" y="613" width="160" height="30" as="geometry" />
        </mxCell>
        <mxCell id="lCiSDCw6pnVLolVEOz2V-14" value="&lt;font style=&quot;font-size: 6px&quot;&gt;晋升策略: 投资回报率高于1.3&lt;/font&gt;" style="text;html=1;strokeColor=none;fillColor=none;align=center;verticalAlign=middle;whiteSpace=wrap;rounded=0;fontSize=6;" parent="1" vertex="1">
          <mxGeometry x="368" y="633" width="160" height="30" as="geometry" />
        </mxCell>
        <mxCell id="lCiSDCw6pnVLolVEOz2V-15" value="第三代" style="rounded=0;whiteSpace=wrap;html=1;align=left;verticalAlign=top;" parent="1" vertex="1">
          <mxGeometry x="558" y="303" width="80" height="300" as="geometry" />
        </mxCell>
        <mxCell id="lCiSDCw6pnVLolVEOz2V-16" value="P111" style="ellipse;whiteSpace=wrap;html=1;aspect=fixed;fillColor=#d5e8d4;strokeColor=#82b366;" parent="1" vertex="1">
          <mxGeometry x="573" y="333" width="50" height="50" as="geometry" />
        </mxCell>
        <mxCell id="lCiSDCw6pnVLolVEOz2V-18" value="P221" style="ellipse;whiteSpace=wrap;html=1;aspect=fixed;fillColor=#d5e8d4;strokeColor=#82b366;" parent="1" vertex="1">
          <mxGeometry x="573" y="453" width="50" height="50" as="geometry" />
        </mxCell>
        <mxCell id="lCiSDCw6pnVLolVEOz2V-19" value="P222" style="ellipse;whiteSpace=wrap;html=1;aspect=fixed;fillColor=#d5e8d4;strokeColor=#82b366;" parent="1" vertex="1">
          <mxGeometry x="573" y="513" width="50" height="50" as="geometry" />
        </mxCell>
        <mxCell id="lCiSDCw6pnVLolVEOz2V-20" value="&lt;font style=&quot;font-size: 6px&quot;&gt;淘汰策略: 投资回报率低于1.3&lt;/font&gt;" style="text;html=1;strokeColor=none;fillColor=none;align=center;verticalAlign=middle;whiteSpace=wrap;rounded=0;fontSize=6;" parent="1" vertex="1">
          <mxGeometry x="538" y="613" width="160" height="30" as="geometry" />
        </mxCell>
        <mxCell id="lCiSDCw6pnVLolVEOz2V-21" value="&lt;font style=&quot;font-size: 6px&quot;&gt;晋升策略: 投资回报率高于1.5&lt;/font&gt;" style="text;html=1;strokeColor=none;fillColor=none;align=center;verticalAlign=middle;whiteSpace=wrap;rounded=0;fontSize=6;" parent="1" vertex="1">
          <mxGeometry x="538" y="633" width="160" height="30" as="geometry" />
        </mxCell>
        <mxCell id="lCiSDCw6pnVLolVEOz2V-22" value="P112" style="ellipse;whiteSpace=wrap;html=1;aspect=fixed;fillColor=#f8cecc;strokeColor=#b85450;" parent="1" vertex="1">
          <mxGeometry x="573" y="393" width="50" height="50" as="geometry" />
        </mxCell>
      </root>
    </mxGraphModel>
  </diagram>
</mxfile>
